<svg width="25" height="24" viewBox="0 0 25 24" fill="none" xmlns="http://www.w3.org/2000/svg">
<path d="M12.0286 2.85767L19.4312 7.14338V15.7148L12.0286 20.0005L4.62598 15.7148V7.14338L12.0286 2.85767ZM12.0286 13.7668C12.6486 13.7668 13.2432 13.5205 13.6816 13.0821C14.1199 12.6437 14.3662 12.0491 14.3662 11.4291C14.3662 10.8091 14.1199 10.2145 13.6816 9.77612C13.2432 9.33772 12.6486 9.09143 12.0286 9.09143C11.4086 9.09143 10.814 9.33772 10.3756 9.77612C9.9372 10.2145 9.69091 10.8091 9.69091 11.4291C9.69091 12.0491 9.9372 12.6437 10.3756 13.0821C10.814 13.5205 11.4086 13.7668 12.0286 13.7668Z" fill="#49454F"/>
</svg>
